<svg xmlns="http://www.w3.org/2000/svg" viewBox="0 0 64 64" fill="none">
  <defs>
    <linearGradient id="fp" x1="0" y1="0" x2="1" y2="1">
      <stop offset="0" stop-color="#f7dee0"/>
      <stop offset="1" stop-color="#c98690"/>
    </linearGradient>
    <linearGradient id="fg" x1="0" y1="0" x2="1" y2="1">
      <stop offset="0" stop-color="#f0c977"/>
      <stop offset="1" stop-color="#8d6a2a"/>
    </linearGradient>
  </defs>
  <circle cx="32" cy="32" r="30" fill="#fbf4f1"/>
  <g transform="translate(32 50)">
    <g transform="rotate(-74)"><path d="M 0 0 C -5 -10 -5 -28 0 -38 C 5 -28 5 -10 0 0 Z" fill="url(#fg)"/></g>
    <g transform="rotate(74)"><path d="M 0 0 C -5 -10 -5 -28 0 -38 C 5 -28 5 -10 0 0 Z" fill="url(#fg)"/></g>
    <g transform="rotate(-48)"><path d="M 0 0 C -5.5 -12 -5.5 -33 0 -44 C 5.5 -33 5.5 -12 0 0 Z" fill="url(#fp)"/></g>
    <g transform="rotate(48)"><path d="M 0 0 C -5.5 -12 -5.5 -33 0 -44 C 5.5 -33 5.5 -12 0 0 Z" fill="url(#fp)"/></g>
    <g transform="rotate(-22)"><path d="M 0 0 C -6 -14 -6 -38 0 -48 C 6 -38 6 -14 0 0 Z" fill="url(#fg)"/></g>
    <g transform="rotate(22)"><path d="M 0 0 C -6 -14 -6 -38 0 -48 C 6 -38 6 -14 0 0 Z" fill="url(#fg)"/></g>
    <path d="M 0 0 C -7 -16 -7 -42 0 -52 C 7 -42 7 -16 0 0 Z" fill="url(#fp)"/>
    <g transform="rotate(180)"><path d="M 0 0 C -3 -4 -3 -11 0 -14 C 3 -11 3 -4 0 0 Z" fill="url(#fp)"/></g>
  </g>
</svg>
